<mxfile host="Electron" modified="2024-09-24T19:42:48.157Z" agent="Mozilla/5.0 (Windows NT 10.0; Win64; x64) AppleWebKit/537.36 (KHTML, like Gecko) draw.io/22.0.3 Chrome/114.0.5735.289 Electron/25.8.4 Safari/537.36" etag="MIv-hZSjnJLYO5o-jrbf" version="22.0.3" type="device">
  <diagram name="Page-1" id="Q4rZu_LvMLpEQK1RkZZC">
    <mxGraphModel dx="675" dy="1559" grid="1" gridSize="10" guides="1" tooltips="1" connect="1" arrows="1" fold="1" page="1" pageScale="1" pageWidth="827" pageHeight="1169" math="0" shadow="0">
      <root>
        <mxCell id="0" />
        <mxCell id="1" parent="0" />
        <mxCell id="ivgiZYofwmfwTLloGg20-1" value="Database" style="shape=datastore;whiteSpace=wrap;html=1;" parent="1" vertex="1">
          <mxGeometry x="230" y="205" width="90" height="100" as="geometry" />
        </mxCell>
        <mxCell id="ivgiZYofwmfwTLloGg20-2" value="MySQL ?" style="text;strokeColor=none;fillColor=none;html=1;fontSize=24;fontStyle=1;verticalAlign=middle;align=center;" parent="1" vertex="1">
          <mxGeometry x="225" y="315" width="100" height="40" as="geometry" />
        </mxCell>
        <mxCell id="ivgiZYofwmfwTLloGg20-3" value="User" style="shape=umlActor;verticalLabelPosition=bottom;verticalAlign=top;html=1;" parent="1" vertex="1">
          <mxGeometry x="60" y="20" width="30" height="60" as="geometry" />
        </mxCell>
        <mxCell id="ivgiZYofwmfwTLloGg20-4" value="Light Sensor" style="shape=process;whiteSpace=wrap;html=1;backgroundOutline=1;" parent="1" vertex="1">
          <mxGeometry x="680" y="180" width="120" height="60" as="geometry" />
        </mxCell>
        <mxCell id="ivgiZYofwmfwTLloGg20-5" value="Temperature and Humidity Sensor" style="shape=process;whiteSpace=wrap;html=1;backgroundOutline=1;" parent="1" vertex="1">
          <mxGeometry x="680" y="320" width="120" height="60" as="geometry" />
        </mxCell>
        <mxCell id="ivgiZYofwmfwTLloGg20-6" value="Python Web Application" style="swimlane;whiteSpace=wrap;html=1;" parent="1" vertex="1">
          <mxGeometry x="400" y="160" width="200" height="220" as="geometry" />
        </mxCell>
        <mxCell id="ivgiZYofwmfwTLloGg20-7" value="Gunicorn&amp;nbsp;" style="text;strokeColor=none;fillColor=none;html=1;fontSize=24;fontStyle=1;verticalAlign=middle;align=center;" parent="1" vertex="1">
          <mxGeometry x="450" y="-40" width="100" height="40" as="geometry" />
        </mxCell>
        <mxCell id="ivgiZYofwmfwTLloGg20-8" value="Nginx" style="text;strokeColor=none;fillColor=none;html=1;fontSize=24;fontStyle=1;verticalAlign=middle;align=center;" parent="1" vertex="1">
          <mxGeometry x="270" y="-60" width="100" height="40" as="geometry" />
        </mxCell>
        <mxCell id="ivgiZYofwmfwTLloGg20-9" value="Flask&lt;br&gt;+ Jinja" style="text;strokeColor=none;fillColor=none;html=1;fontSize=24;fontStyle=1;verticalAlign=middle;align=center;" parent="1" vertex="1">
          <mxGeometry x="450" y="390" width="100" height="40" as="geometry" />
        </mxCell>
        <mxCell id="ivgiZYofwmfwTLloGg20-10" value="AHT20" style="text;strokeColor=none;fillColor=none;html=1;fontSize=24;fontStyle=1;verticalAlign=middle;align=center;" parent="1" vertex="1">
          <mxGeometry x="690" y="390" width="100" height="40" as="geometry" />
        </mxCell>
        <mxCell id="ivgiZYofwmfwTLloGg20-11" value="TSL2591" style="text;strokeColor=none;fillColor=none;html=1;fontSize=24;fontStyle=1;verticalAlign=middle;align=center;" parent="1" vertex="1">
          <mxGeometry x="690" y="250" width="100" height="40" as="geometry" />
        </mxCell>
        <mxCell id="ivgiZYofwmfwTLloGg20-12" value="" style="endArrow=classic;startArrow=classic;html=1;rounded=0;exitX=0.998;exitY=0.752;exitDx=0;exitDy=0;entryX=0;entryY=0.5;entryDx=0;entryDy=0;exitPerimeter=0;" parent="1" edge="1">
          <mxGeometry width="50" height="50" relative="1" as="geometry">
            <mxPoint x="319.99999999999994" y="254.91000000000005" as="sourcePoint" />
            <mxPoint x="400.18" y="254.71" as="targetPoint" />
          </mxGeometry>
        </mxCell>
        <mxCell id="ivgiZYofwmfwTLloGg20-13" value="" style="endArrow=classic;startArrow=classic;html=1;rounded=0;entryX=0;entryY=0.5;entryDx=0;entryDy=0;" parent="1" target="ivgiZYofwmfwTLloGg20-4" edge="1">
          <mxGeometry width="50" height="50" relative="1" as="geometry">
            <mxPoint x="600" y="210" as="sourcePoint" />
            <mxPoint x="550" y="230" as="targetPoint" />
          </mxGeometry>
        </mxCell>
        <mxCell id="ivgiZYofwmfwTLloGg20-14" value="" style="endArrow=classic;startArrow=classic;html=1;rounded=0;entryX=0;entryY=0.5;entryDx=0;entryDy=0;" parent="1" edge="1">
          <mxGeometry width="50" height="50" relative="1" as="geometry">
            <mxPoint x="600" y="349.76" as="sourcePoint" />
            <mxPoint x="680" y="349.76" as="targetPoint" />
          </mxGeometry>
        </mxCell>
        <mxCell id="ivgiZYofwmfwTLloGg20-15" value="Client" style="rounded=1;whiteSpace=wrap;html=1;" parent="1" vertex="1">
          <mxGeometry x="120" y="-10" width="80" height="120" as="geometry" />
        </mxCell>
        <mxCell id="ivgiZYofwmfwTLloGg20-16" value="Web Server" style="shape=cylinder3;whiteSpace=wrap;html=1;boundedLbl=1;backgroundOutline=1;size=15;" parent="1" vertex="1">
          <mxGeometry x="280" y="-10" width="80" height="120" as="geometry" />
        </mxCell>
        <mxCell id="ivgiZYofwmfwTLloGg20-17" value="Web Server Gateway Interface (WSGI)" style="rounded=1;whiteSpace=wrap;html=1;" parent="1" vertex="1">
          <mxGeometry x="440" y="20" width="120" height="60" as="geometry" />
        </mxCell>
        <mxCell id="ivgiZYofwmfwTLloGg20-18" value="sources:&lt;br&gt;https://github.com/app-generator/flask-black-dashboard/tree/master&lt;br&gt;&lt;br&gt;https://builtin.com/data-science/wsgi#:~:text=Web%20Server%20Gateway%20Interface%20(WSGI,a%20Django%20or%20Flask%20app.&lt;br&gt;&lt;br&gt;https://gunicorn.org/#quickstart" style="text;html=1;strokeColor=none;fillColor=none;align=left;verticalAlign=middle;whiteSpace=wrap;rounded=0;" parent="1" vertex="1">
          <mxGeometry x="740" y="-20" width="810" height="30" as="geometry" />
        </mxCell>
        <mxCell id="ivgiZYofwmfwTLloGg20-19" value="" style="endArrow=classic;startArrow=none;html=1;rounded=0;exitX=1.001;exitY=0.315;exitDx=0;exitDy=0;entryX=0;entryY=0;entryDx=0;entryDy=37.5;entryPerimeter=0;exitPerimeter=0;startFill=0;" parent="1" source="ivgiZYofwmfwTLloGg20-15" target="ivgiZYofwmfwTLloGg20-16" edge="1">
          <mxGeometry width="50" height="50" relative="1" as="geometry">
            <mxPoint x="360" y="130" as="sourcePoint" />
            <mxPoint x="410" y="80" as="targetPoint" />
          </mxGeometry>
        </mxCell>
        <mxCell id="ivgiZYofwmfwTLloGg20-21" value="Request" style="edgeLabel;html=1;align=center;verticalAlign=middle;resizable=0;points=[];" parent="ivgiZYofwmfwTLloGg20-19" vertex="1" connectable="0">
          <mxGeometry x="-0.1078" relative="1" as="geometry">
            <mxPoint x="4" y="-8" as="offset" />
          </mxGeometry>
        </mxCell>
        <mxCell id="ivgiZYofwmfwTLloGg20-20" value="" style="endArrow=none;startArrow=classic;html=1;rounded=0;exitX=1.001;exitY=0.315;exitDx=0;exitDy=0;entryX=0;entryY=0;entryDx=0;entryDy=37.5;entryPerimeter=0;exitPerimeter=0;endFill=0;" parent="1" edge="1">
          <mxGeometry width="50" height="50" relative="1" as="geometry">
            <mxPoint x="200" y="70" as="sourcePoint" />
            <mxPoint x="280" y="70" as="targetPoint" />
          </mxGeometry>
        </mxCell>
        <mxCell id="ivgiZYofwmfwTLloGg20-22" value="Response" style="edgeLabel;html=1;align=center;verticalAlign=middle;resizable=0;points=[];" parent="ivgiZYofwmfwTLloGg20-20" vertex="1" connectable="0">
          <mxGeometry x="0.1625" relative="1" as="geometry">
            <mxPoint x="-7" y="-10" as="offset" />
          </mxGeometry>
        </mxCell>
        <mxCell id="ivgiZYofwmfwTLloGg20-24" value="" style="endArrow=classic;startArrow=classic;html=1;rounded=0;exitX=1;exitY=0.5;exitDx=0;exitDy=0;exitPerimeter=0;entryX=0;entryY=0.5;entryDx=0;entryDy=0;" parent="1" source="ivgiZYofwmfwTLloGg20-16" target="ivgiZYofwmfwTLloGg20-17" edge="1">
          <mxGeometry width="50" height="50" relative="1" as="geometry">
            <mxPoint x="320" y="70" as="sourcePoint" />
            <mxPoint x="370" y="20" as="targetPoint" />
          </mxGeometry>
        </mxCell>
        <mxCell id="ivgiZYofwmfwTLloGg20-25" value="Reverse&lt;br&gt;Proxy" style="edgeLabel;html=1;align=center;verticalAlign=middle;resizable=0;points=[];" parent="ivgiZYofwmfwTLloGg20-24" vertex="1" connectable="0">
          <mxGeometry x="0.1988" y="1" relative="1" as="geometry">
            <mxPoint x="-8" y="1" as="offset" />
          </mxGeometry>
        </mxCell>
        <mxCell id="ivgiZYofwmfwTLloGg20-26" value="" style="endArrow=classic;startArrow=classic;html=1;rounded=0;entryX=0.5;entryY=1;entryDx=0;entryDy=0;exitX=0.5;exitY=0;exitDx=0;exitDy=0;" parent="1" source="ivgiZYofwmfwTLloGg20-6" target="ivgiZYofwmfwTLloGg20-17" edge="1">
          <mxGeometry width="50" height="50" relative="1" as="geometry">
            <mxPoint x="320" y="130" as="sourcePoint" />
            <mxPoint x="370" y="80" as="targetPoint" />
          </mxGeometry>
        </mxCell>
      </root>
    </mxGraphModel>
  </diagram>
</mxfile>
